<svg xmlns="http://www.w3.org/2000/svg" width="36" height="36" viewBox="0 0 36 36"><g transform="translate(0 -1016.362)"><path fill="#fff" style="isolation:auto;mix-blend-mode:normal" d="M21.50007 1040.3629a1 1 0 0 1-1 1 1 1 0 0 1-1-1 1 1 0 0 1 1-1 1 1 0 0 1 1 1zM24.50007 1027.3628c-.55228 0-1 .4478-1 1 0 .5523.44772 1 1 1 .55228 0 1-.4477 1-1 0-.5522-.44772-1-1-1zm8.14062 0l-4.14062 0c-.55401 0-1 .446-1 1 0 .554.44599 1 1 1l2 0c.554 0 1 .446 1 1 0 .554-.446 1-1 1l-4 0c-.554 0-1 .446-1 1 0 .554.446 1 1 1l7.8745 0zM4.12507 1041.3628l12.375 0c.554 0 1-.446 1-1 0-.554-.446-1-1-1l-1 0c-.554 0-1-.446-1-1 0-.554.446-1 1-1l5 0c.554 0 1-.446 1-1 0-.554-.446-1-1-1l-17.96289 0 .25781 2 1.77651 0c.554 0 1 .446 1 1 0 .554-.446 1-1 1l-1.24721 0zM6.57224 1045.3628l4.92783 0c.554 0 1-.446 1-1 0-.554-.446-1-1-1l-6.20898 0zm5.16957 4l1.75826 0c.554 0 1-.446 1-1 0-.554-.446-1-1-1l-4.86817 0zM31.72658 1043.3628l-8.22656 0 .00005 0c-.554 0-1 .446-1 1 0 .554.446 1 1 1l2 0c.554 0 1 .446 1 1 0 .554-.446 1-1 1l-1.5 0c-.554 0-1 .446-1 1 0 .554.446 1 1 1l1.17964 0zM25.500072 1038.3629a1 1 0 0 1-1 1 1 1 0 0 1-1-1 1 1 0 0 1 1-1 1 1 0 0 1 1 1zM5.27351 1025.8629c-1.22887 1.8093-2.07374 3.8513-2.48242 6l6.70898 0c.554 0 1-.446 1-1 0-.554-.446-1-1-1l-1 0c-.554 0-1-.446-1-1 0-.554.446-1 1-1l5 0c.554 0 1-.446 1-1 0-.554-.446-1-1-1z" color="#000" overflow="visible"/><path fill="#fff" fill-rule="evenodd" d="m 22.47516,1019.3628 -1.12379,0 -0.8513,0 c -0.554,0 -1,0.446 -1,1 0,0.554 0.446,1 1,1 l 1,0 c 0.554,0 1,0.446 1,1 0,0.554 -0.446,1 -1,1 l -2,0 c -0.554,0 -1,0.446 -1,1 0,0.554 0.446,1 1,1 l 11.84344,0 z"/><path fill="#fff" style="isolation:auto;mix-blend-mode:normal" d="m 34.500072,1034.8629 a 16,16 0 0 1 -16.000002,16 16,16 0 0 1 -16,-16 16,16 0 0 1 16,-16 16,16 0 0 1 16.000002,16 z" color="#000" overflow="visible"/><path fill="#fff" style="isolation:auto;mix-blend-mode:normal" d="m 34.500072,1034.8629 a 16,16 0 0 1 -16.000002,16 16,16 0 0 1 -16,-16 16,16 0 0 1 16,-16 16,16 0 0 1 16.000002,16 z" color="#000" overflow="visible"/><path fill="#fff" d="M29.57743 1023.3628l-2.67773 0c-.55401 0-1-.446-1-1 0-.554.44599-1 1-1l.11967 0M24.50007 1027.3628c-.55228 0-1 .4478-1 1 0 .5523.44772 1 1 1 .55228 0 1-.4477 1-1 0-.5522-.44772-1-1-1zm8.14062 0l-4.14062 0c-.55401 0-1 .446-1 1 0 .554.44599 1 1 1l2 0c.554 0 1 .446 1 1 0 .554-.446 1-1 1l-4 0c-.554 0-1 .446-1 1 0 .554.446 1 1 1l7.8745 0M4.12507 1041.3628l12.375 0c.554 0 1-.446 1-1 0-.554-.446-1-1-1l-1 0c-.554 0-1-.446-1-1 0-.554.446-1 1-1l5 0c.554 0 1-.446 1-1 0-.554-.446-1-1-1l-17.96289 0m.25781 2l1.77651 0c.554 0 1 .446 1 1 0 .554-.446 1-1 1l-1.24721 0M6.57224 1045.3628l4.92783 0c.554 0 1-.446 1-1 0-.554-.446-1-1-1l-6.20898 0m6.45072 6l1.75826 0c.554 0 1-.446 1-1 0-.554-.446-1-1-1l-4.86817 0M31.72658 1043.3628l-8.22656 0 .00005 0c-.554 0-1 .446-1 1 0 .554.446 1 1 1l2 0c.554 0 1 .446 1 1 0 .554-.446 1-1 1l-1.5 0c-.554 0-1 .446-1 1 0 .554.446 1 1 1l1.17964 0M21.50007 1040.3629a1 1 0 0 1-1 1 1 1 0 0 1-1-1 1 1 0 0 1 1-1 1 1 0 0 1 1 1zM25.500072 1038.3629a1 1 0 0 1-1 1 1 1 0 0 1-1-1 1 1 0 0 1 1-1 1 1 0 0 1 1 1zM5.27351 1025.8629a16 16 0 0 0-2.48242 6l6.70898 0c.554 0 1-.446 1-1 0-.554-.446-1-1-1l-1 0c-.554 0-1-.446-1-1 0-.554.446-1 1-1l5 0c.554 0 1-.446 1-1 0-.554-.446-1-1-1l-8.22656 0z" color="#000" overflow="visible" style="isolation:auto;mix-blend-mode:normal"/><path fill="#fff" fill-rule="evenodd" d="m 22.47516,1019.3628 -1.12379,0 -0.8513,0 c -0.554,0 -1,0.446 -1,1 0,0.554 0.446,1 1,1 l 1,0 c 0.554,0 1,0.446 1,1 0,0.554 -0.446,1 -1,1 l -2,0 c -0.554,0 -1,0.446 -1,1 0,0.554 0.446,1 1,1 l 11.84344,0"/><path fill="#c2e4f8" style="isolation:auto;mix-blend-mode:normal" d="M21.50007 1040.3629a1 1 0 0 1-1 1 1 1 0 0 1-1-1 1 1 0 0 1 1-1 1 1 0 0 1 1 1zM24.50007 1027.3628c-.55228 0-1 .4478-1 1 0 .5523.44772 1 1 1 .55228 0 1-.4477 1-1 0-.5522-.44772-1-1-1zm8.14062 0l-4.14062 0c-.55401 0-1 .446-1 1 0 .554.44599 1 1 1l2 0c.554 0 1 .446 1 1 0 .554-.446 1-1 1l-4 0c-.554 0-1 .446-1 1 0 .554.446 1 1 1l7.8745 0zM4.12507 1041.3628l12.375 0c.554 0 1-.446 1-1 0-.554-.446-1-1-1l-1 0c-.554 0-1-.446-1-1 0-.554.446-1 1-1l5 0c.554 0 1-.446 1-1 0-.554-.446-1-1-1l-17.96289 0 .25781 2 1.77651 0c.554 0 1 .446 1 1 0 .554-.446 1-1 1l-1.24721 0zM6.57224 1045.3628l4.92783 0c.554 0 1-.446 1-1 0-.554-.446-1-1-1l-6.20898 0zm5.16957 4l1.75826 0c.554 0 1-.446 1-1 0-.554-.446-1-1-1l-4.86817 0zM32.231656 1043.71l-8.731636-.3472.00005 0c-.554 0-1 .446-1 1 0 .554.446 1 1 1l2 0c.554 0 1 .446 1 1 0 .554-.446 1-1 1l-1.5 0c-.554 0-1 .446-1 1 0 .554.446 1 1 1l1.17964 0zM25.500072 1038.3629a1 1 0 0 1-1 1 1 1 0 0 1-1-1 1 1 0 0 1 1-1 1 1 0 0 1 1 1zM5.27351 1025.8629c-1.22887 1.8093-2.07374 3.8513-2.48242 6l6.70898 0c.554 0 1-.446 1-1 0-.554-.446-1-1-1l-1 0c-.554 0-1-.446-1-1 0-.554.446-1 1-1l5 0c.554 0 1-.446 1-1 0-.554-.446-1-1-1z" color="#000" overflow="visible"/><path fill="#c2e4f8" fill-rule="evenodd" d="m 24.595696,1019.9208 -3.244326,-0.558 -0.8513,0 c -0.554,0 -1,0.446 -1,1 0,0.554 0.446,1 1,1 l 1,0 c 0.554,0 1,0.446 1,1 0,0.554 -0.446,1 -1,1 l -2,0 c -0.554,0 -1,0.446 -1,1 0,0.554 0.446,1 1,1 l 12.022011,-0.1116 z"/><path fill="#249fe6" style="line-height:normal;text-indent:0;text-align:start;text-decoration-line:none;text-decoration-style:solid;text-decoration-color:#000;text-transform:none;block-progression:tb;isolation:auto;mix-blend-mode:normal" d="m 18.5,1018.3621 c -9.10677,0 -16.5,7.3933 -16.5,16.5 0,9.1068 7.39323,16.5 16.5,16.5 9.106781,0 16.500004,-7.3932 16.500004,-16.5 0,-9.1067 -7.393223,-16.5 -16.500004,-16.5 z m 0,1 c 8.56634,0 15.500004,6.9337 15.500004,15.5 0,8.5664 -6.933664,15.5 -15.500004,15.5 -8.56633,0 -15.5,-6.9336 -15.5,-15.5 0,-8.5663 6.93367,-15.5 15.5,-15.5 z" color="#000" font-family="sans-serif" font-weight="400" overflow="visible" white-space="normal"/><path fill="#249fe6" style="line-height:normal;text-indent:0;text-align:start;text-decoration-line:none;text-decoration-style:solid;text-decoration-color:#000;text-transform:none;block-progression:tb;isolation:auto;mix-blend-mode:normal" d="m 18.5,1018.3621 c -9.10677,0 -16.5,7.3933 -16.5,16.5 0,9.1068 7.39323,16.5 16.5,16.5 9.106781,0 16.500004,-7.3932 16.500004,-16.5 0,-9.1067 -7.393223,-16.5 -16.500004,-16.5 z m 0,1 c 8.56634,0 15.500004,6.9337 15.500004,15.5 0,8.5664 -6.933664,15.5 -15.500004,15.5 -8.56633,0 -15.5,-6.9336 -15.5,-15.5 0,-8.5663 6.93367,-15.5 15.5,-15.5 z" color="#000" font-family="sans-serif" font-weight="400" overflow="visible" white-space="normal"/><path fill="#249fe6" style="line-height:normal;text-indent:0;text-align:start;text-decoration-line:none;text-decoration-style:solid;text-decoration-color:#000;text-transform:none;block-progression:tb;isolation:auto;mix-blend-mode:normal" d="M26.900394 1020.8621c-.822356 0-1.5.6777-1.5 1.5 0 .8224.677644 1.5 1.5 1.5l2.677735 0a.50004994.50004994 0 1 0 0-1l-2.677735 0c-.285663 0-.5-.2143-.5-.5 0-.2856.214337-.5.5-.5l.119141 0a.50004994.50004994 0 1 0 0-1l-.119141 0zM24.500004 1026.8621c-.822554 0-1.5.6776-1.5 1.5 0 .8226.677507 1.5 1.5 1.5.822493 0 1.5-.6774 1.5-1.5 0-.8224-.677447-1.5-1.5-1.5zm4 0c-.822357 0-1.5.6777-1.5 1.5 0 .8224.677643 1.5 1.5 1.5l2 0c.285648 0 .5.2144.5.5 0 .2857-.214352.5-.5.5l-4 0c-.822352 0-1.5.6777-1.5 1.5 0 .8224.677648 1.5 1.5 1.5l7.875 0a.50004994.50004994 0 1 0 0-1l-7.875 0c-.285649 0-.5-.2143-.5-.5 0-.2856.214351-.5.5-.5l4 0c.822351 0 1.5-.6776 1.5-1.5 0-.8223-.677649-1.5-1.5-1.5l-2 0c-.285664 0-.5-.2143-.5-.5 0-.2856.214336-.5.5-.5l4.140625 0a.50004994.50004994 0 1 0 0-1l-4.140625 0zm-4 1c.282006 0 .5.2181.5.5 0 .2821-.217933.5-.5.5-.282067 0-.5-.2179-.5-.5 0-.2819.217993-.5.5-.5zM2.53711 1034.8621a.50004994.50004994 0 1 0 0 1l17.96289 0c.28565 0 .5.2144.5.5 0 .2857-.21435.5-.5.5l-5 0c-.82235 0-1.5.6777-1.5 1.5 0 .8224.67765 1.5 1.5 1.5l1 0c.28565 0 .5.2144.5.5 0 .2857-.21435.5-.5.5l-12.375 0a.50004994.50004994 0 1 0 0 1l12.375 0c.82236 0 1.5-.6776 1.5-1.5 0-.8223-.67764-1.5-1.5-1.5l-1 0c-.28564 0-.5-.2143-.5-.5 0-.2856.21436-.5.5-.5l5 0c.82236 0 1.5-.6776 1.5-1.5 0-.8223-.67764-1.5-1.5-1.5l-17.96289 0zm.25782 2a.50004994.50004994 0 1 0 0 1l1.77734 0c.28565 0 .5.2144.5.5 0 .2857-.21435.5-.5.5l-1.24805 0a.50004994.50004994 0 1 0 0 1l1.24805 0c.82235 0 1.5-.6776 1.5-1.5 0-.8223-.67765-1.5-1.5-1.5l-1.77734 0zM5.29102 1042.8621a.50004994.50004994 0 1 0 0 1l6.20898 0c.28565 0 .5.2144.5.5 0 .2857-.21435.5-.5.5l-4.92773 0a.50004994.50004994 0 1 0 0 1l4.92773 0c.82236 0 1.5-.6776 1.5-1.5 0-.8223-.67764-1.5-1.5-1.5l-6.20898 0zm3.3418 4a.50004994.50004994 0 1 0 0 1l4.86718 0c.28565 0 .5.2144.5.5 0 .2857-.21435.5-.5.5l-1.75781 0a.50004994.50004994 0 1 0 0 1l1.75781 0c.82236 0 1.5-.6776 1.5-1.5 0-.8223-.67764-1.5-1.5-1.5l-4.86718 0zM23.500004 1042.8621a.50004994.50004994 0 0 0-.339844.1426C22.520503 1043.1759 22 1043.6719 22 1044.3621c0 .8224.677652 1.5 1.500004 1.5l2 0c.285648 0 .5.2144.5.5 0 .2857-.214352.5-.5.5l-1.5 0c-.822352 0-1.5.6777-1.5 1.5 0 .8224.677648 1.5 1.5 1.5l1.179687 0a.50004994.50004994 0 1 0 0-1l-1.179687 0c-.285649 0-.5-.2143-.5-.5 0-.2856.214351-.5.5-.5l1.5 0c.822351 0 1.5-.6776 1.5-1.5 0-.8223-.677649-1.5-1.5-1.5l-2 0c-.285649 0-.5-.2143-.5-.5 0-.2856.214351-.5.5-.5l8.226562 0a.50004994.50004994 0 1 0 0-1l-8.220703 0a.50004994.50004994 0 0 0-.0059 0z" color="#000" font-family="sans-serif" font-weight="400" overflow="visible" white-space="normal"/><path fill="#249fe6" style="line-height:normal;text-indent:0;text-align:start;text-decoration-line:none;text-decoration-style:solid;text-decoration-color:#000;text-transform:none;block-progression:tb;isolation:auto;mix-blend-mode:normal" d="M20.5 1038.8621c-.8225 0-1.5.6775-1.5 1.5 0 .8225.6775 1.5 1.5 1.5.82251 0 1.5-.6775 1.5-1.5 0-.8225-.67749-1.5-1.5-1.5zm0 1c.28207 0 .5.218.5.5 0 .2821-.21793.5-.5.5-.28206 0-.5-.2179-.5-.5 0-.282.21794-.5.5-.5zM24.500004 1036.8621c-.822505 0-1.5.6775-1.5 1.5 0 .8225.677495 1.5 1.5 1.5.822505 0 1.5-.6775 1.5-1.5 0-.8225-.677495-1.5-1.5-1.5zm0 1c.282064 0 .5.218.5.5 0 .2821-.217936.5-.5.5-.282065 0-.5-.2179-.5-.5 0-.282.217935-.5.5-.5zM5.27344 1025.3621a.50004994.50004994 0 0 0-.41406.2207c-1.26727 1.8659-2.13714 3.9718-2.5586 6.1875a.50004994.50004994 0 0 0 .49024.5918l6.70898 0c.82236 0 1.5-.6776 1.5-1.5 0-.8223-.67764-1.5-1.5-1.5l-1 0c-.28564 0-.5-.2143-.5-.5 0-.2856.21436-.5.5-.5l5 0c.82236 0 1.5-.6776 1.5-1.5 0-.8223-.67764-1.5-1.5-1.5l-8.22656 0zm.29688 1l7.92968 0c.28565 0 .5.2144.5.5 0 .2857-.21435.5-.5.5l-5 0c-.82235 0-1.5.6777-1.5 1.5 0 .8224.67765 1.5 1.5 1.5l1 0c.28565 0 .5.2144.5.5 0 .2857-.21435.5-.5.5l-6.03906 0c.41262-1.7773 1.10758-3.4727 2.10938-5z" color="#000" font-family="sans-serif" font-weight="400" overflow="visible" white-space="normal"/><path fill="#249fe6" fill-rule="evenodd" style="line-height:normal;text-indent:0;text-align:start;text-decoration-line:none;text-decoration-style:solid;text-decoration-color:#000;text-transform:none;block-progression:tb;isolation:auto;mix-blend-mode:normal" d="m 20.5,1018.8621 c -0.82235,0 -1.5,0.6777 -1.5,1.5 0,0.8224 0.67765,1.5 1.5,1.5 l 1,0 c 0.28565,0 0.5,0.2144 0.5,0.5 0,0.2857 -0.21435,0.5 -0.5,0.5 l -2,0 c -0.82235,0 -1.5,0.6777 -1.5,1.5 0,0.8224 0.67765,1.5 1.5,1.5 l 11.843754,0 a 0.50005,0.50005 0 1 0 0,-1 l -11.843754,0 c -0.28564,0 -0.5,-0.2143 -0.5,-0.5 0,-0.2856 0.21436,-0.5 0.5,-0.5 l 2,0 c 0.822355,0 1.500004,-0.6776 1.500004,-1.5 0,-0.8223 -0.677649,-1.5 -1.500004,-1.5 l -1,0 c -0.28564,0 -0.5,-0.2143 -0.5,-0.5 0,-0.2856 0.21436,-0.5 0.5,-0.5 l 0.85157,0 1.123043,0 a 0.50005,0.50005 0 1 0 0,-1 l -1.123043,0 -0.85157,0 z" color="#000" font-family="sans-serif" font-weight="400" overflow="visible" white-space="normal"/></g></svg>